<?xml version="1.0" encoding="UTF-8" standalone="no"?>
<!DOCTYPE svg PUBLIC "-//W3C//DTD SVG 1.1//EN"
 "http://www.w3.org/Graphics/SVG/1.1/DTD/svg11.dtd">
<!-- Generated by graphviz version 14.1.1 (20251213.1925)
 -->
<!-- Title: InheritanceTree Pages: 1 -->
<svg width="362pt" height="213pt"
 viewBox="0.00 0.00 362.00 213.00" xmlns="http://www.w3.org/2000/svg" xmlns:xlink="http://www.w3.org/1999/xlink">
<g id="graph0" class="graph" transform="scale(1 1) rotate(0) translate(4 208.5)">
<title>InheritanceTree</title>
<polygon fill="white" stroke="none" points="-4,4 -4,-208.5 357.75,-208.5 357.75,4 -4,4"/>
<text xml:space="preserve" text-anchor="middle" x="176.88" y="-7.2" font-family="Times New Roman,serif" font-size="14.00">simple_system &#45; Inheritance Hierarchy</text>
<!-- SIMPLE_SYSTEM -->
<g id="node1" class="node">
<title>SIMPLE_SYSTEM</title>
<path fill="none" stroke="black" d="M113.5,-60.5C113.5,-60.5 12,-60.5 12,-60.5 6,-60.5 0,-54.5 0,-48.5 0,-48.5 0,-36.5 0,-36.5 0,-30.5 6,-24.5 12,-24.5 12,-24.5 113.5,-24.5 113.5,-24.5 119.5,-24.5 125.5,-30.5 125.5,-36.5 125.5,-36.5 125.5,-48.5 125.5,-48.5 125.5,-54.5 119.5,-60.5 113.5,-60.5"/>
<text xml:space="preserve" text-anchor="middle" x="62.75" y="-37.45" font-family="Times New Roman,serif" font-size="14.00">SIMPLE_SYSTEM</text>
</g>
<!-- LIB_TESTS -->
<g id="node2" class="node">
<title>LIB_TESTS</title>
<path fill="none" stroke="black" d="M92.88,-132.5C92.88,-132.5 32.62,-132.5 32.62,-132.5 26.62,-132.5 20.62,-126.5 20.62,-120.5 20.62,-120.5 20.62,-108.5 20.62,-108.5 20.62,-102.5 26.62,-96.5 32.62,-96.5 32.62,-96.5 92.88,-96.5 92.88,-96.5 98.88,-96.5 104.88,-102.5 104.88,-108.5 104.88,-108.5 104.88,-120.5 104.88,-120.5 104.88,-126.5 98.88,-132.5 92.88,-132.5"/>
<text xml:space="preserve" text-anchor="middle" x="62.75" y="-109.45" font-family="Times New Roman,serif" font-size="14.00">LIB_TESTS</text>
</g>
<!-- TEST_SET_BASE -->
<g id="node3" class="node">
<title>TEST_SET_BASE</title>
<path fill="none" stroke="black" d="M341.75,-132.5C341.75,-132.5 245.5,-132.5 245.5,-132.5 239.5,-132.5 233.5,-126.5 233.5,-120.5 233.5,-120.5 233.5,-108.5 233.5,-108.5 233.5,-102.5 239.5,-96.5 245.5,-96.5 245.5,-96.5 341.75,-96.5 341.75,-96.5 347.75,-96.5 353.75,-102.5 353.75,-108.5 353.75,-108.5 353.75,-120.5 353.75,-120.5 353.75,-126.5 347.75,-132.5 341.75,-132.5"/>
<text xml:space="preserve" text-anchor="middle" x="293.62" y="-109.45" font-family="Times New Roman,serif" font-size="14.00">TEST_SET_BASE</text>
</g>
<!-- LIB_TESTS&#45;&gt;TEST_SET_BASE -->
<g id="edge1" class="edge">
<title>LIB_TESTS&#45;&gt;TEST_SET_BASE</title>
<path fill="none" stroke="black" d="M105.37,-114.5C105.37,-114.5 221.91,-114.5 221.91,-114.5"/>
<polygon fill="none" stroke="black" points="221.91,-118 231.91,-114.5 221.91,-111 221.91,-118"/>
</g>
<!-- TEST_APP -->
<g id="node4" class="node">
<title>TEST_APP</title>
<path fill="none" stroke="black" d="M90.62,-204.5C90.62,-204.5 34.88,-204.5 34.88,-204.5 28.88,-204.5 22.88,-198.5 22.88,-192.5 22.88,-192.5 22.88,-180.5 22.88,-180.5 22.88,-174.5 28.88,-168.5 34.88,-168.5 34.88,-168.5 90.62,-168.5 90.62,-168.5 96.62,-168.5 102.62,-174.5 102.62,-180.5 102.62,-180.5 102.62,-192.5 102.62,-192.5 102.62,-198.5 96.62,-204.5 90.62,-204.5"/>
<text xml:space="preserve" text-anchor="middle" x="62.75" y="-181.45" font-family="Times New Roman,serif" font-size="14.00">TEST_APP</text>
</g>
</g>
</svg>
