<?xml version="1.0" encoding="UTF-8" standalone="no"?>
<!DOCTYPE svg PUBLIC "-//W3C//DTD SVG 1.1//EN"
 "http://www.w3.org/Graphics/SVG/1.1/DTD/svg11.dtd">
<!-- Generated by graphviz version 14.1.1 (20251213.1925)
 -->
<!-- Title: ContractCoverage Pages: 1 -->
<svg width="816pt" height="641pt"
 viewBox="48.00 48.00 768.00 593.00" xmlns="http://www.w3.org/2000/svg" xmlns:xlink="http://www.w3.org/1999/xlink">
<g id="graph0" class="graph" transform="scale(0.722393 0.722393) rotate(0) translate(70.45 816.2)">
<title>ContractCoverage</title>
<polygon fill="white" stroke="none" points="-4,4 -4,-749.75 992.69,-749.75 992.69,4 -4,4"/>
<text xml:space="preserve" text-anchor="middle" x="494.34" y="-732.25" font-family="Times New Roman,serif" font-size="10.00">simple_system &#45; Contract Coverage</text>
<g id="clust1" class="cluster">
<title>cluster_SIMPLE_SYSTEM</title>
<polygon fill="white" stroke="black" points="0,-74 0,-610.5 547.5,-610.5 547.5,-74 0,-74"/>
<text xml:space="preserve" text-anchor="middle" x="273.75" y="-593.2" font-family="Times New Roman,serif" font-size="14.00">SIMPLE_SYSTEM</text>
</g>
<g id="clust2" class="cluster">
<title>cluster_LIB_TESTS</title>
<polygon fill="white" stroke="black" points="628.81,0 628.81,-340.5 988.69,-340.5 988.69,0 628.81,0"/>
<text xml:space="preserve" text-anchor="middle" x="808.75" y="-323.2" font-family="Times New Roman,serif" font-size="14.00">LIB_TESTS</text>
</g>
<g id="clust3" class="cluster">
<title>cluster_TEST_APP</title>
<polygon fill="white" stroke="black" points="629.75,-666 629.75,-726.5 693.75,-726.5 693.75,-666 629.75,-666"/>
<text xml:space="preserve" text-anchor="middle" x="661.75" y="-709.2" font-family="Times New Roman,serif" font-size="14.00">TEST_APP</text>
</g>
<g id="clust4" class="cluster">
<title>cluster_legend</title>
<polygon fill="lightyellow" stroke="black" points="629.38,-407.12 629.38,-595.38 842.12,-595.38 842.12,-407.12 629.38,-407.12"/>
<text xml:space="preserve" text-anchor="middle" x="735.75" y="-581.88" font-family="Times New Roman,serif" font-size="10.00">Legend</text>
</g>
<!-- SIMPLE_SYSTEM_computer_name -->
<g id="node1" class="node">
<title>SIMPLE_SYSTEM_computer_name</title>
<polygon fill="lightcoral" stroke="black" points="88,-502 6.75,-502 6.75,-466 88,-466 88,-502"/>
<text xml:space="preserve" text-anchor="middle" x="47.37" y="-480.12" font-family="Times New Roman,serif" font-size="10.00">computer_name</text>
</g>
<!-- SIMPLE_SYSTEM_user_name -->
<g id="node2" class="node">
<title>SIMPLE_SYSTEM_user_name</title>
<polygon fill="lightcoral" stroke="black" points="66.12,-278 6.62,-278 6.62,-242 66.12,-242 66.12,-278"/>
<text xml:space="preserve" text-anchor="middle" x="36.37" y="-256.12" font-family="Times New Roman,serif" font-size="10.00">user_name</text>
</g>
<!-- SIMPLE_SYSTEM_windows_directory -->
<g id="node3" class="node">
<title>SIMPLE_SYSTEM_windows_directory</title>
<polygon fill="lightcoral" stroke="black" points="137.12,-334 41.62,-334 41.62,-298 137.12,-298 137.12,-334"/>
<text xml:space="preserve" text-anchor="middle" x="89.37" y="-312.12" font-family="Times New Roman,serif" font-size="10.00">windows_directory</text>
</g>
<!-- SIMPLE_SYSTEM_system_directory -->
<g id="node4" class="node">
<title>SIMPLE_SYSTEM_system_directory</title>
<polygon fill="lightcoral" stroke="black" points="407.25,-558 321.5,-558 321.5,-522 407.25,-522 407.25,-558"/>
<text xml:space="preserve" text-anchor="middle" x="364.37" y="-536.12" font-family="Times New Roman,serif" font-size="10.00">system_directory</text>
</g>
<!-- SIMPLE_SYSTEM_temp_directory -->
<g id="node5" class="node">
<title>SIMPLE_SYSTEM_temp_directory</title>
<polygon fill="lightcoral" stroke="black" points="547.5,-320 469.25,-320 469.25,-284 547.5,-284 547.5,-320"/>
<text xml:space="preserve" text-anchor="middle" x="508.37" y="-298.12" font-family="Times New Roman,serif" font-size="10.00">temp_directory</text>
</g>
<!-- SIMPLE_SYSTEM_processor_count -->
<g id="node6" class="node">
<title>SIMPLE_SYSTEM_processor_count</title>
<polygon fill="lightcoral" stroke="black" points="82.75,-586 0,-586 0,-550 82.75,-550 82.75,-586"/>
<text xml:space="preserve" text-anchor="middle" x="41.37" y="-564.12" font-family="Times New Roman,serif" font-size="10.00">processor_count</text>
</g>
<!-- SIMPLE_SYSTEM_processor_architecture -->
<g id="node7" class="node">
<title>SIMPLE_SYSTEM_processor_architecture</title>
<polygon fill="lightcoral" stroke="black" points="352.12,-502 244.62,-502 244.62,-466 352.12,-466 352.12,-502"/>
<text xml:space="preserve" text-anchor="middle" x="298.37" y="-480.12" font-family="Times New Roman,serif" font-size="10.00">processor_architecture</text>
</g>
<!-- SIMPLE_SYSTEM_is_64_bit -->
<g id="node8" class="node">
<title>SIMPLE_SYSTEM_is_64_bit</title>
<polygon fill="lightcoral" stroke="black" points="285.87,-110 230.87,-110 230.87,-74 285.87,-74 285.87,-110"/>
<text xml:space="preserve" text-anchor="middle" x="258.37" y="-88.12" font-family="Times New Roman,serif" font-size="10.00">is_64_bit</text>
</g>
<!-- SIMPLE_SYSTEM_page_size -->
<g id="node9" class="node">
<title>SIMPLE_SYSTEM_page_size</title>
<polygon fill="lightcoral" stroke="black" points="210.62,-166 154.12,-166 154.12,-130 210.62,-130 210.62,-166"/>
<text xml:space="preserve" text-anchor="middle" x="182.37" y="-144.12" font-family="Times New Roman,serif" font-size="10.00">page_size</text>
</g>
<!-- SIMPLE_SYSTEM_total_memory_mb -->
<g id="node10" class="node">
<title>SIMPLE_SYSTEM_total_memory_mb</title>
<polygon fill="lightcoral" stroke="black" points="132.87,-166 41.87,-166 41.87,-130 132.87,-130 132.87,-166"/>
<text xml:space="preserve" text-anchor="middle" x="87.37" y="-144.12" font-family="Times New Roman,serif" font-size="10.00">total_memory_mb</text>
</g>
<!-- SIMPLE_SYSTEM_available_memory_mb -->
<g id="node11" class="node">
<title>SIMPLE_SYSTEM_available_memory_mb</title>
<polygon fill="lightcoral" stroke="black" points="221.25,-502 111.5,-502 111.5,-466 221.25,-466 221.25,-502"/>
<text xml:space="preserve" text-anchor="middle" x="166.37" y="-480.12" font-family="Times New Roman,serif" font-size="10.00">available_memory_mb</text>
</g>
<!-- SIMPLE_SYSTEM_total_memory_gb -->
<g id="node12" class="node">
<title>SIMPLE_SYSTEM_total_memory_gb</title>
<polygon fill="lightcoral" stroke="black" points="438.75,-152 350,-152 350,-116 438.75,-116 438.75,-152"/>
<text xml:space="preserve" text-anchor="middle" x="394.37" y="-130.12" font-family="Times New Roman,serif" font-size="10.00">total_memory_gb</text>
</g>
<!-- SIMPLE_SYSTEM_available_memory_gb -->
<g id="node13" class="node">
<title>SIMPLE_SYSTEM_available_memory_gb</title>
<polygon fill="lightcoral" stroke="black" points="485.12,-502 377.62,-502 377.62,-466 485.12,-466 485.12,-502"/>
<text xml:space="preserve" text-anchor="middle" x="431.37" y="-480.12" font-family="Times New Roman,serif" font-size="10.00">available_memory_gb</text>
</g>
<!-- SIMPLE_SYSTEM_os_major_version -->
<g id="node14" class="node">
<title>SIMPLE_SYSTEM_os_major_version</title>
<polygon fill="lightcoral" stroke="black" points="522.75,-390 434,-390 434,-354 522.75,-354 522.75,-390"/>
<text xml:space="preserve" text-anchor="middle" x="478.37" y="-368.12" font-family="Times New Roman,serif" font-size="10.00">os_major_version</text>
</g>
<!-- SIMPLE_SYSTEM_os_minor_version -->
<g id="node15" class="node">
<title>SIMPLE_SYSTEM_os_minor_version</title>
<polygon fill="lightcoral" stroke="black" points="523.12,-558 433.62,-558 433.62,-522 523.12,-522 523.12,-558"/>
<text xml:space="preserve" text-anchor="middle" x="478.37" y="-536.12" font-family="Times New Roman,serif" font-size="10.00">os_minor_version</text>
</g>
<!-- SIMPLE_SYSTEM_os_build_number -->
<g id="node16" class="node">
<title>SIMPLE_SYSTEM_os_build_number</title>
<polygon fill="lightcoral" stroke="black" points="102.37,-390 14.37,-390 14.37,-354 102.37,-354 102.37,-390"/>
<text xml:space="preserve" text-anchor="middle" x="58.37" y="-368.12" font-family="Times New Roman,serif" font-size="10.00">os_build_number</text>
</g>
<!-- SIMPLE_SYSTEM_os_version_string -->
<g id="node17" class="node">
<title>SIMPLE_SYSTEM_os_version_string</title>
<polygon fill="lightcoral" stroke="black" points="186.75,-558 98,-558 98,-522 186.75,-522 186.75,-558"/>
<text xml:space="preserve" text-anchor="middle" x="142.37" y="-536.12" font-family="Times New Roman,serif" font-size="10.00">os_version_string</text>
</g>
<!-- SIMPLE_SYSTEM_is_windows_10_or_later -->
<g id="node18" class="node">
<title>SIMPLE_SYSTEM_is_windows_10_or_later</title>
<polygon fill="lightcoral" stroke="black" points="496.37,-208 378.37,-208 378.37,-172 496.37,-172 496.37,-208"/>
<text xml:space="preserve" text-anchor="middle" x="437.37" y="-186.12" font-family="Times New Roman,serif" font-size="10.00">is_windows_10_or_later</text>
</g>
<!-- SIMPLE_SYSTEM_is_windows_11 -->
<g id="node19" class="node">
<title>SIMPLE_SYSTEM_is_windows_11</title>
<polygon fill="lightcoral" stroke="black" points="535.62,-131 455.12,-131 455.12,-95 535.62,-95 535.62,-131"/>
<text xml:space="preserve" text-anchor="middle" x="495.38" y="-109.12" font-family="Times New Roman,serif" font-size="10.00">is_windows_11</text>
</g>
<!-- SIMPLE_SYSTEM_pointer_to_string -->
<g id="node20" class="node">
<title>SIMPLE_SYSTEM_pointer_to_string</title>
<polygon fill="lightcoral" stroke="black" points="297,-558 209.75,-558 209.75,-522 297,-522 297,-558"/>
<text xml:space="preserve" text-anchor="middle" x="253.37" y="-536.12" font-family="Times New Roman,serif" font-size="10.00">pointer_to_string</text>
</g>
<!-- SIMPLE_SYSTEM_c_ss_get_computer_name -->
<g id="node21" class="node">
<title>SIMPLE_SYSTEM_c_ss_get_computer_name</title>
<polygon fill="lightcoral" stroke="black" points="212.25,-278 90.5,-278 90.5,-242 212.25,-242 212.25,-278"/>
<text xml:space="preserve" text-anchor="middle" x="151.37" y="-256.12" font-family="Times New Roman,serif" font-size="10.00">c_ss_get_computer_name</text>
</g>
<!-- SIMPLE_SYSTEM_c_ss_get_user_name -->
<g id="node22" class="node">
<title>SIMPLE_SYSTEM_c_ss_get_user_name</title>
<polygon fill="lightcoral" stroke="black" points="485.37,-264 385.37,-264 385.37,-228 485.37,-228 485.37,-264"/>
<text xml:space="preserve" text-anchor="middle" x="435.37" y="-242.12" font-family="Times New Roman,serif" font-size="10.00">c_ss_get_user_name</text>
</g>
<!-- SIMPLE_SYSTEM_c_ss_get_windows_directory -->
<g id="node23" class="node">
<title>SIMPLE_SYSTEM_c_ss_get_windows_directory</title>
<polygon fill="lightcoral" stroke="black" points="367.37,-278 231.37,-278 231.37,-242 367.37,-242 367.37,-278"/>
<text xml:space="preserve" text-anchor="middle" x="299.37" y="-256.12" font-family="Times New Roman,serif" font-size="10.00">c_ss_get_windows_directory</text>
</g>
<!-- SIMPLE_SYSTEM_c_ss_get_system_directory -->
<g id="node24" class="node">
<title>SIMPLE_SYSTEM_c_ss_get_system_directory</title>
<polygon fill="lightcoral" stroke="black" points="448.5,-334 322.25,-334 322.25,-298 448.5,-298 448.5,-334"/>
<text xml:space="preserve" text-anchor="middle" x="385.37" y="-312.12" font-family="Times New Roman,serif" font-size="10.00">c_ss_get_system_directory</text>
</g>
<!-- SIMPLE_SYSTEM_c_ss_get_temp_path -->
<g id="node25" class="node">
<title>SIMPLE_SYSTEM_c_ss_get_temp_path</title>
<polygon fill="lightcoral" stroke="black" points="331.37,-166 231.37,-166 231.37,-130 331.37,-130 331.37,-166"/>
<text xml:space="preserve" text-anchor="middle" x="281.37" y="-144.12" font-family="Times New Roman,serif" font-size="10.00">c_ss_get_temp_path</text>
</g>
<!-- SIMPLE_SYSTEM_c_ss_get_processor_count -->
<g id="node26" class="node">
<title>SIMPLE_SYSTEM_c_ss_get_processor_count</title>
<polygon fill="lightcoral" stroke="black" points="214,-222 90.75,-222 90.75,-186 214,-186 214,-222"/>
<text xml:space="preserve" text-anchor="middle" x="152.37" y="-200.12" font-family="Times New Roman,serif" font-size="10.00">c_ss_get_processor_count</text>
</g>
<!-- SIMPLE_SYSTEM_c_ss_get_processor_architecture -->
<g id="node27" class="node">
<title>SIMPLE_SYSTEM_c_ss_get_processor_architecture</title>
<polygon fill="lightcoral" stroke="black" points="302.38,-334 154.37,-334 154.37,-298 302.38,-298 302.38,-334"/>
<text xml:space="preserve" text-anchor="middle" x="228.37" y="-312.12" font-family="Times New Roman,serif" font-size="10.00">c_ss_get_processor_architecture</text>
</g>
<!-- SIMPLE_SYSTEM_c_ss_get_page_size -->
<g id="node28" class="node">
<title>SIMPLE_SYSTEM_c_ss_get_page_size</title>
<polygon fill="lightcoral" stroke="black" points="145.87,-446 48.87,-446 48.87,-410 145.87,-410 145.87,-446"/>
<text xml:space="preserve" text-anchor="middle" x="97.37" y="-424.12" font-family="Times New Roman,serif" font-size="10.00">c_ss_get_page_size</text>
</g>
<!-- SIMPLE_SYSTEM_c_ss_get_total_memory_mb -->
<g id="node29" class="node">
<title>SIMPLE_SYSTEM_c_ss_get_total_memory_mb</title>
<polygon fill="lightcoral" stroke="black" points="299.12,-446 167.62,-446 167.62,-410 299.12,-410 299.12,-446"/>
<text xml:space="preserve" text-anchor="middle" x="233.37" y="-424.12" font-family="Times New Roman,serif" font-size="10.00">c_ss_get_total_memory_mb</text>
</g>
<!-- SIMPLE_SYSTEM_c_ss_get_available_memory_mb -->
<g id="node30" class="node">
<title>SIMPLE_SYSTEM_c_ss_get_available_memory_mb</title>
<polygon fill="lightcoral" stroke="black" points="416.5,-390 266.25,-390 266.25,-354 416.5,-354 416.5,-390"/>
<text xml:space="preserve" text-anchor="middle" x="341.37" y="-368.12" font-family="Times New Roman,serif" font-size="10.00">c_ss_get_available_memory_mb</text>
</g>
<!-- SIMPLE_SYSTEM_c_ss_get_os_major_version -->
<g id="node31" class="node">
<title>SIMPLE_SYSTEM_c_ss_get_os_major_version</title>
<polygon fill="lightcoral" stroke="black" points="451,-446 321.75,-446 321.75,-410 451,-410 451,-446"/>
<text xml:space="preserve" text-anchor="middle" x="386.37" y="-424.12" font-family="Times New Roman,serif" font-size="10.00">c_ss_get_os_major_version</text>
</g>
<!-- SIMPLE_SYSTEM_c_ss_get_os_minor_version -->
<g id="node32" class="node">
<title>SIMPLE_SYSTEM_c_ss_get_os_minor_version</title>
<polygon fill="lightcoral" stroke="black" points="361.37,-222 231.37,-222 231.37,-186 361.37,-186 361.37,-222"/>
<text xml:space="preserve" text-anchor="middle" x="296.37" y="-200.12" font-family="Times New Roman,serif" font-size="10.00">c_ss_get_os_minor_version</text>
</g>
<!-- SIMPLE_SYSTEM_c_ss_get_os_build_number -->
<g id="node33" class="node">
<title>SIMPLE_SYSTEM_c_ss_get_os_build_number</title>
<polygon fill="lightcoral" stroke="black" points="247.62,-390 119.12,-390 119.12,-354 247.62,-354 247.62,-390"/>
<text xml:space="preserve" text-anchor="middle" x="183.37" y="-368.12" font-family="Times New Roman,serif" font-size="10.00">c_ss_get_os_build_number</text>
</g>
<!-- SIMPLE_SYSTEM_c_free -->
<g id="node34" class="node">
<title>SIMPLE_SYSTEM_c_free</title>
<polygon fill="lightcoral" stroke="black" points="68.37,-222 14.37,-222 14.37,-186 68.37,-186 68.37,-222"/>
<text xml:space="preserve" text-anchor="middle" x="41.37" y="-200.12" font-family="Times New Roman,serif" font-size="10.00">c_free</text>
</g>
<!-- LIB_TESTS_test_computer_name -->
<g id="node35" class="node">
<title>LIB_TESTS_test_computer_name</title>
<polygon fill="lightcoral" stroke="black" points="988.69,-43 887.94,-43 887.94,-7 988.69,-7 988.69,-43"/>
<text xml:space="preserve" text-anchor="middle" x="938.31" y="-21.12" font-family="Times New Roman,serif" font-size="10.00">test_computer_name</text>
</g>
<!-- LIB_TESTS_test_user_name -->
<g id="node36" class="node">
<title>LIB_TESTS_test_user_name</title>
<polygon fill="lightcoral" stroke="black" points="707.81,-302 628.81,-302 628.81,-266 707.81,-266 707.81,-302"/>
<text xml:space="preserve" text-anchor="middle" x="668.31" y="-280.12" font-family="Times New Roman,serif" font-size="10.00">test_user_name</text>
</g>
<!-- LIB_TESTS_test_windows_directory -->
<g id="node37" class="node">
<title>LIB_TESTS_test_windows_directory</title>
<polygon fill="lightcoral" stroke="black" points="967.81,-148 852.81,-148 852.81,-112 967.81,-112 967.81,-148"/>
<text xml:space="preserve" text-anchor="middle" x="910.31" y="-126.12" font-family="Times New Roman,serif" font-size="10.00">test_windows_directory</text>
</g>
<!-- LIB_TESTS_test_system_directory -->
<g id="node38" class="node">
<title>LIB_TESTS_test_system_directory</title>
<polygon fill="lightcoral" stroke="black" points="957.94,-260 852.69,-260 852.69,-224 957.94,-224 957.94,-260"/>
<text xml:space="preserve" text-anchor="middle" x="905.31" y="-238.12" font-family="Times New Roman,serif" font-size="10.00">test_system_directory</text>
</g>
<!-- LIB_TESTS_test_temp_directory -->
<g id="node39" class="node">
<title>LIB_TESTS_test_temp_directory</title>
<polygon fill="lightcoral" stroke="black" points="775.19,-204 677.44,-204 677.44,-168 775.19,-168 775.19,-204"/>
<text xml:space="preserve" text-anchor="middle" x="726.31" y="-182.12" font-family="Times New Roman,serif" font-size="10.00">test_temp_directory</text>
</g>
<!-- LIB_TESTS_test_processor_count -->
<g id="node40" class="node">
<title>LIB_TESTS_test_processor_count</title>
<polygon fill="lightcoral" stroke="black" points="829.44,-260 727.19,-260 727.19,-224 829.44,-224 829.44,-260"/>
<text xml:space="preserve" text-anchor="middle" x="778.31" y="-238.12" font-family="Times New Roman,serif" font-size="10.00">test_processor_count</text>
</g>
<!-- LIB_TESTS_test_processor_architecture -->
<g id="node41" class="node">
<title>LIB_TESTS_test_processor_architecture</title>
<polygon fill="lightcoral" stroke="black" points="923.81,-204 796.81,-204 796.81,-168 923.81,-168 923.81,-204"/>
<text xml:space="preserve" text-anchor="middle" x="860.31" y="-182.12" font-family="Times New Roman,serif" font-size="10.00">test_processor_architecture</text>
</g>
<!-- LIB_TESTS_test_page_size -->
<g id="node42" class="node">
<title>LIB_TESTS_test_page_size</title>
<polygon fill="lightcoral" stroke="black" points="705.31,-36 629.31,-36 629.31,0 705.31,0 705.31,-36"/>
<text xml:space="preserve" text-anchor="middle" x="667.31" y="-14.12" font-family="Times New Roman,serif" font-size="10.00">test_page_size</text>
</g>
<!-- LIB_TESTS_test_total_memory -->
<g id="node43" class="node">
<title>LIB_TESTS_test_total_memory</title>
<polygon fill="lightcoral" stroke="black" points="735.56,-92 643.06,-92 643.06,-56 735.56,-56 735.56,-92"/>
<text xml:space="preserve" text-anchor="middle" x="689.31" y="-70.12" font-family="Times New Roman,serif" font-size="10.00">test_total_memory</text>
</g>
<!-- LIB_TESTS_test_available_memory -->
<g id="node44" class="node">
<title>LIB_TESTS_test_available_memory</title>
<polygon fill="lightcoral" stroke="black" points="872.94,-92 761.69,-92 761.69,-56 872.94,-56 872.94,-92"/>
<text xml:space="preserve" text-anchor="middle" x="817.31" y="-70.12" font-family="Times New Roman,serif" font-size="10.00">test_available_memory</text>
</g>
<!-- LIB_TESTS_test_os_version -->
<g id="node45" class="node">
<title>LIB_TESTS_test_os_version</title>
<polygon fill="lightcoral" stroke="black" points="841.19,-36 761.44,-36 761.44,0 841.19,0 841.19,-36"/>
<text xml:space="preserve" text-anchor="middle" x="801.31" y="-14.12" font-family="Times New Roman,serif" font-size="10.00">test_os_version</text>
</g>
<!-- LIB_TESTS_test_is_64_bit -->
<g id="node46" class="node">
<title>LIB_TESTS_test_is_64_bit</title>
<polygon fill="lightcoral" stroke="black" points="983.56,-316 909.06,-316 909.06,-280 983.56,-280 983.56,-316"/>
<text xml:space="preserve" text-anchor="middle" x="946.31" y="-294.12" font-family="Times New Roman,serif" font-size="10.00">test_is_64_bit</text>
</g>
<!-- LIB_TESTS_test_is_windows_10_or_later -->
<g id="node47" class="node">
<title>LIB_TESTS_test_is_windows_10_or_later</title>
<polygon fill="lightcoral" stroke="black" points="829.06,-148 691.56,-148 691.56,-112 829.06,-112 829.06,-148"/>
<text xml:space="preserve" text-anchor="middle" x="760.31" y="-126.12" font-family="Times New Roman,serif" font-size="10.00">test_is_windows_10_or_later</text>
</g>
<!-- TEST_APP_make -->
<g id="node48" class="node">
<title>TEST_APP_make</title>
<polygon fill="lightcoral" stroke="black" points="688.75,-702 634.75,-702 634.75,-666 688.75,-666 688.75,-702"/>
<text xml:space="preserve" text-anchor="middle" x="661.75" y="-680.12" font-family="Times New Roman,serif" font-size="10.00">make</text>
</g>
<!-- legend_full -->
<g id="node49" class="node">
<title>legend_full</title>
<polygon fill="palegreen" stroke="black" points="831.62,-512.12 717.38,-512.12 717.38,-471.12 831.62,-471.12 831.62,-512.12"/>
<text xml:space="preserve" text-anchor="middle" x="774.5" y="-494.82" font-family="Times New Roman,serif" font-size="14.00">Full Contract</text>
<text xml:space="preserve" text-anchor="middle" x="774.5" y="-478.32" font-family="Times New Roman,serif" font-size="14.00">(require + ensure)</text>
</g>
<!-- legend_partial -->
<g id="node50" class="node">
<title>legend_partial</title>
<polygon fill="khaki" stroke="black" points="842.12,-448.12 724.88,-448.12 724.88,-407.12 842.12,-407.12 842.12,-448.12"/>
<text xml:space="preserve" text-anchor="middle" x="783.5" y="-430.82" font-family="Times New Roman,serif" font-size="14.00">Partial Contract</text>
<text xml:space="preserve" text-anchor="middle" x="783.5" y="-414.32" font-family="Times New Roman,serif" font-size="14.00">(require or ensure)</text>
</g>
<!-- legend_none -->
<g id="node51" class="node">
<title>legend_none</title>
<polygon fill="lightcoral" stroke="black" points="823.88,-570.62 741.12,-570.62 741.12,-534.62 823.88,-534.62 823.88,-570.62"/>
<text xml:space="preserve" text-anchor="middle" x="782.5" y="-547.58" font-family="Times New Roman,serif" font-size="14.00">No Contract</text>
</g>
<!-- legend_attr -->
<g id="node52" class="node">
<title>legend_attr</title>
<polygon fill="lightgray" stroke="black" points="717.88,-576.12 653.12,-576.12 653.12,-535.12 717.88,-535.12 717.88,-576.12"/>
<text xml:space="preserve" text-anchor="middle" x="685.5" y="-558.83" font-family="Times New Roman,serif" font-size="14.00">Attribute</text>
<text xml:space="preserve" text-anchor="middle" x="685.5" y="-542.33" font-family="Times New Roman,serif" font-size="14.00">(n/a)</text>
</g>
<!-- legend_stats -->
<g id="node53" class="node">
<title>legend_stats</title>
<polygon fill="white" stroke="black" points="689.62,-514.12 629.38,-514.12 629.38,-407.12 695.62,-407.12 695.62,-508.12 689.62,-514.12"/>
<polyline fill="none" stroke="black" points="689.62,-514.12 689.62,-508.12"/>
<polyline fill="none" stroke="black" points="695.62,-508.12 689.62,-508.12"/>
<text xml:space="preserve" text-anchor="middle" x="662.5" y="-496.82" font-family="Times New Roman,serif" font-size="14.00">Statistics</text>
<text xml:space="preserve" text-anchor="middle" x="662.5" y="-480.32" font-family="Times New Roman,serif" font-size="14.00">Full: 0</text>
<text xml:space="preserve" text-anchor="middle" x="662.5" y="-463.82" font-family="Times New Roman,serif" font-size="14.00">Partial: 0</text>
<text xml:space="preserve" text-anchor="middle" x="662.5" y="-447.32" font-family="Times New Roman,serif" font-size="14.00">None: 48</text>
<text xml:space="preserve" text-anchor="middle" x="662.5" y="-430.82" font-family="Times New Roman,serif" font-size="14.00">Attr: 0</text>
<text xml:space="preserve" text-anchor="middle" x="662.5" y="-414.32" font-family="Times New Roman,serif" font-size="14.00">Total: 48</text>
</g>
</g>
</svg>
