<?xml version="1.0" encoding="UTF-8" standalone="no"?>
<!DOCTYPE svg PUBLIC "-//W3C//DTD SVG 1.1//EN"
 "http://www.w3.org/Graphics/SVG/1.1/DTD/svg11.dtd">
<!-- Generated by graphviz version 14.1.1 (20251213.1925)
 -->
<!-- Title: Dependencies Pages: 1 -->
<svg width="345pt" height="213pt"
 viewBox="0.00 0.00 345.00 213.00" xmlns="http://www.w3.org/2000/svg" xmlns:xlink="http://www.w3.org/1999/xlink">
<g id="graph0" class="graph" transform="scale(1 1) rotate(0) translate(4 208.5)">
<title>Dependencies</title>
<polygon fill="white" stroke="none" points="-4,4 -4,-208.5 341.25,-208.5 341.25,4 -4,4"/>
<text xml:space="preserve" text-anchor="middle" x="168.62" y="-7.2" font-family="Times New Roman,serif" font-size="14.00">simple_system &#45; Dependencies</text>
<!-- simple_system -->
<g id="node1" class="node">
<title>simple_system</title>
<polygon fill="lightblue" stroke="black" points="97.75,-132.5 0,-132.5 0,-96.5 97.75,-96.5 97.75,-132.5"/>
<text xml:space="preserve" text-anchor="middle" x="48.88" y="-109.45" font-family="Times New Roman,serif" font-size="14.00">simple_system</text>
</g>
<!-- simple_testing -->
<g id="node2" class="node">
<title>simple_testing</title>
<polygon fill="lightblue" stroke="black" points="337.25,-204.5 241.75,-204.5 241.75,-168.5 337.25,-168.5 337.25,-204.5"/>
<text xml:space="preserve" text-anchor="middle" x="289.5" y="-181.45" font-family="Times New Roman,serif" font-size="14.00">simple_testing</text>
</g>
<!-- simple_system&#45;&gt;simple_testing -->
<g id="edge1" class="edge">
<title>simple_system&#45;&gt;simple_testing</title>
<path fill="none" stroke="black" stroke-dasharray="5,2" d="M98.11,-120.5C158.3,-120.5 252.25,-120.5 252.25,-120.5 252.25,-120.5 252.25,-156.6 252.25,-156.6"/>
<polygon fill="black" stroke="black" points="248.75,-156.6 252.25,-166.6 255.75,-156.6 248.75,-156.6"/>
</g>
<!-- base -->
<g id="node3" class="node">
<title>base</title>
<polygon fill="lightgray" stroke="black" points="316.5,-132.5 262.5,-132.5 262.5,-96.5 316.5,-96.5 316.5,-132.5"/>
<text xml:space="preserve" text-anchor="middle" x="289.5" y="-109.45" font-family="Times New Roman,serif" font-size="14.00">base</text>
</g>
<!-- simple_system&#45;&gt;base -->
<g id="edge2" class="edge">
<title>simple_system&#45;&gt;base</title>
<path fill="none" stroke="black" stroke-dasharray="5,2" d="M98.15,-108.5C98.15,-108.5 250.49,-108.5 250.49,-108.5"/>
<polygon fill="black" stroke="black" points="250.49,-112 260.49,-108.5 250.49,-105 250.49,-112"/>
</g>
<!-- testing -->
<g id="node4" class="node">
<title>testing</title>
<polygon fill="lightgray" stroke="black" points="316.5,-60.5 262.5,-60.5 262.5,-24.5 316.5,-24.5 316.5,-60.5"/>
<text xml:space="preserve" text-anchor="middle" x="289.5" y="-37.45" font-family="Times New Roman,serif" font-size="14.00">testing</text>
</g>
<!-- simple_system&#45;&gt;testing -->
<g id="edge3" class="edge">
<title>simple_system&#45;&gt;testing</title>
<path fill="none" stroke="black" stroke-dasharray="5,2" d="M49.25,-96.33C49.25,-75 49.25,-42.5 49.25,-42.5 49.25,-42.5 250.89,-42.5 250.89,-42.5"/>
<polygon fill="black" stroke="black" points="250.89,-46 260.89,-42.5 250.89,-39 250.89,-46"/>
</g>
</g>
</svg>
